<?xml version="1.0" encoding="utf-8"?>
<svg viewBox="0 0 1422 832" xmlns="http://www.w3.org/2000/svg">
  <g transform="matrix(0.10000000149011613, 0, 0, -0.10000000149011613, 0, 832)" fill="#000000" stroke="none">
    <path d="M5402 7020 c-264 -48 -471 -234 -528 -476 -22 -95 -15 -273 15 -366&#10;44 -138 167 -281 300 -347 115 -59 193 -76 341 -76 99 0 153 5 200 18 278 76&#10;460 299 477 582 17 300 -164 552 -462 645 -80 25 -257 35 -343 20z m268 -264&#10;c101 -36 195 -137 226 -244 24 -83 16 -220 -18 -293 -67 -146 -204 -226 -369&#10;-217 -267 16 -426 280 -328 544 24 64 105 156 163 186 94 49 227 58 326 24z"/>
    <path d="M1288 7004 c-5 -4 -8 -283 -8 -621 l0 -613 368 0 c406 1 479 8 586&#10;58 74 35 131 88 160 151 32 71 30 208 -6 276 -30 58 -75 104 -135 137 l-42 24&#10;43 37 c122 101 136 301 32 425 -37 43 -103 81 -185 105 -59 18 -105 20 -436&#10;24 -203 3 -373 1 -377 -3z m694 -241 c110 -50 105 -195 -9 -239 -40 -16 -76&#10;-19 -223 -19 l-175 0 -3 143 -3 144 183 -4 c161 -3 189 -6 230 -25z m61 -502&#10;c55 -27 77 -62 77 -121 0 -61 -24 -98 -78 -123 -43 -20 -67 -22 -259 -25&#10;l-213 -3 0 151 0 152 213 -4 c199 -3 215 -4 260 -27z"/>
    <path d="M2627 7003 c-4 -3 -7 -282 -7 -620 l0 -613 480 0 480 0 0 115 0 115&#10;-332 2 -333 3 -3 138 -3 137 286 0 285 0 0 115 0 115 -285 0 -285 0 0 130 0&#10;130 325 0 325 0 0 120 0 120 -463 0 c-255 0 -467 -3 -470 -7z"/>
    <path d="M3630 6999 c0 -6 106 -186 235 -400 l235 -389 0 -220 0 -220 145 0&#10;145 0 0 218 0 217 216 360 c119 198 227 379 241 403 l25 42 -144 0 -143 0&#10;-164 -271 -164 -271 -26 44 c-15 23 -89 145 -165 271 l-138 227 -149 0 c-101&#10;0 -149 -4 -149 -11z"/>
    <path d="M6417 7003 c-4 -3 -7 -282 -7 -620 l0 -613 145 0 145 0 2 368 3 367&#10;300 -367 300 -367 123 0 122 -1 0 620 0 620 -145 0 -145 0 -2 -367 -3 -367&#10;-300 367 -300 366 -116 1 c-64 0 -119 -3 -122 -7z"/>
    <path d="M7838 7004 c-5 -4 -8 -284 -8 -621 l0 -614 358 3 c322 4 364 6 428&#10;25 230 66 385 215 441 423 22 85 22 252 0 337 -55 208 -217 363 -446 425 -68&#10;19 -111 22 -421 25 -190 3 -348 1 -352 -3z m632 -244 c208 -39 320 -186 308&#10;-401 -7 -112 -36 -177 -113 -248 -89 -81 -135 -94 -357 -99 l-188 -4 0 374 c0&#10;206 3 378 7 381 10 11 284 8 343 -3z"/>
    <path d="M11238 6961 c-161 -52 -281 -171 -328 -327 -20 -68 -21 -86 -18 -530&#10;l3 -459 37 -77 c84 -176 244 -278 437 -278 192 0 352 94 439 258 61 115 62&#10;124 62 590 l0 423 -26 77 c-46 138 -126 232 -247 292 -108 53 -252 65 -359 31z&#10;m212 -130 c5 -41 8 -45 46 -59 40 -15 42 -15 79 14 l38 28 42 -49 43 -49 -28&#10;-36 c-27 -35 -28 -36 -11 -70 11 -24 24 -36 41 -38 72 -8 71 -7 68 -80 -3 -63&#10;-4 -67 -28 -70 -56 -6 -68 -13 -79 -43 -9 -28 -8 -35 14 -61 14 -16 25 -33 25&#10;-36 -1 -4 -21 -29 -45 -57 l-45 -49 -30 29 c-29 27 -31 28 -70 15 -47 -15 -52&#10;-21 -60 -70 l-5 -35 -66 -3 -67 -3 -6 46 c-7 40 -11 47 -44 61 -21 8 -42 12&#10;-48 7 -6 -4 -24 -17 -39 -27 l-27 -20 -51 53 -50 52 32 33 c28 29 30 35 20 63&#10;-9 27 -17 32 -57 40 l-47 8 -3 68 c-3 73 -4 71 59 81 29 5 37 12 48 42 12 34&#10;11 38 -13 63 -14 15 -26 32 -26 37 0 5 20 30 45 54 l45 44 30 -29 c30 -29 31&#10;-29 72 -14 35 13 44 22 50 50 16 62 13 60 80 57 l63 -3 5 -44z m341 -827 c9&#10;-11 10 -20 2 -32 -9 -15 -48 -17 -416 -17 -429 0 -440 1 -418 44 12 21 15 21&#10;415 21 356 0 405 -2 417 -16z m4 -135 c4 -12 2 -26 -3 -31 -7 -7 -144 -10&#10;-414 -9 -330 2 -406 5 -417 16 -12 11 -12 17 -1 29 11 14 64 16 421 16 405 0&#10;408 0 414 -21z m-2 -120 c6 -9 7 -24 4 -33 -6 -14 -46 -16 -415 -16 -401 0&#10;-432 2 -432 31 0 4 7 15 16 23 14 14 62 16 416 14 356 -3 402 -5 411 -19z&#10;m-14 -134 c7 -7 11 -21 8 -29 -6 -14 -52 -16 -412 -16 -368 0 -406 2 -412 17&#10;-4 10 2 23 18 36 23 19 35 19 404 13 300 -6 383 -10 394 -21z m-101 -117 c7&#10;-7 12 -20 12 -29 0 -15 -15 -18 -103 -24 -147 -10 -503 -3 -517 11 -14 14 -3&#10;42 18 47 10 3 143 5 298 6 206 1 283 -2 292 -11z"/>
    <path d="M11317 6690 c-106 -33 -163 -158 -126 -271 34 -100 158 -155 256&#10;-114 51 21 71 41 100 99 21 41 24 60 21 112 -4 70 -32 116 -92 153 -39 25&#10;-117 35 -159 21z m110 -77 c121 -57 81 -253 -52 -253 -72 0 -126 61 -127 144&#10;-1 56 16 84 65 107 52 23 70 23 114 2z"/>
    <path d="M11337 6548 c-9 -7 -20 -27 -23 -45 -5 -26 -1 -37 20 -58 30 -30 59&#10;-27 89 7 49 57 -25 141 -86 96z"/>
    <path d="M12035 6323 c-101 -26 -128 -155 -45 -220 8 -7 30 -17 48 -24 27 -9&#10;39 -7 77 11 100 49 101 175 2 221 -43 19 -49 20 -82 12z m19 -59 c29 -28 12&#10;-64 -30 -64 -29 0 -38 27 -19 56 18 28 28 30 49 8z" style="fill: rgb(29, 66, 105);"/>
    <path d="M10609 6292 c-42 -38 -51 -110 -19 -160 25 -40 81 -66 125 -58 42 8&#10;94 64 102 109 13 79 -40 137 -126 137 -41 0 -56 -5 -82 -28z m85 -34 c16 -26&#10;-4 -53 -40 -53 -35 0 -44 27 -18 56 21 23 42 21 58 -3z" style="fill: rgb(29, 66, 105);"/>
    <path d="M11986 6028 c-3 -13 -7 -97 -9 -188 -3 -147 -7 -174 -31 -247 -32&#10;-97 -107 -215 -174 -273 -26 -22 -89 -62 -141 -88 l-94 -47 -166 0 -166 0 -79&#10;38 c-62 29 -96 55 -160 120 -86 86 -128 153 -166 267 -19 55 -23 94 -27 246&#10;l-5 182 -75 -1 -75 0 5 -181 c4 -159 8 -192 31 -271 51 -170 147 -310 279&#10;-409 87 -65 117 -80 226 -117 74 -26 99 -29 203 -29 144 0 221 17 343 75 193&#10;92 340 280 400 511 22 84 25 117 25 264 l0 169 -31 -9 c-16 -5 -36 -7 -42 -5&#10;-54 16 -67 15 -71 -7z m-580 -903 c34 -52 -22 -100 -68 -58 -10 9 -18 26 -18&#10;38 0 48 58 62 86 20z" style="fill: rgb(29, 66, 105);"/>
    <path d="M1140 5520 l0 -80 4015 0 4015 0 0 80 0 80 -4015 0 -4015 0 0 -80z"/>
    <path d="M1745 5190 c-223 -25 -390 -121 -463 -267 -61 -121 -65 -263 -11&#10;-373 64 -127 183 -194 484 -271 233 -59 284 -79 326 -127 28 -32 31 -40 27&#10;-84 -9 -86 -70 -131 -206 -149 -154 -21 -366 25 -515 111 l-68 39 -21 -47&#10;c-12 -26 -38 -84 -59 -129 l-38 -83 30 -20 c52 -37 174 -89 275 -116 82 -22&#10;128 -27 265 -31 205 -7 294 8 419 69 191 93 288 263 260 456 -28 198 -167 298&#10;-535 382 -181 42 -252 68 -296 110 -41 39 -41 40 -37 95 6 67 34 102 112 136&#10;44 20 67 23 171 23 135 0 226 -20 350 -78 l70 -32 47 114 c26 63 50 123 53&#10;132 9 30 -150 97 -293 124 -101 19 -260 26 -347 16z" style="fill: rgb(29, 66, 105);"/>
    <path d="M7220 5190 c-104 -13 -188 -38 -285 -85 -198 -98 -329 -252 -397&#10;-465 -20 -65 -23 -96 -23 -225 0 -129 3 -160 23 -225 81 -259 272 -442 542&#10;-520 107 -31 325 -39 441 -15 330 66 569 306 625 626 67 385 -149 745 -521&#10;868 -50 16 -134 34 -187 40 -106 12 -122 12 -218 1z m229 -301 c110 -25 233&#10;-113 287 -205 87 -148 94 -347 17 -504 -37 -75 -127 -164 -205 -200 -287 -135&#10;-615 19 -677 318 -68 325 142 599 459 601 41 0 95 -4 119 -10z" style="fill: rgb(29, 66, 105);"/>
    <path d="M2700 4415 l0 -755 585 0 585 0 0 140 0 140 -415 0 -415 0 0 175 0&#10;175 355 0 355 0 0 135 0 135 -352 2 -353 3 -3 163 -2 162 400 0 400 0 0 140 0&#10;140 -570 0 -570 0 0 -755z" style="fill: rgb(29, 66, 105);"/>
    <path d="M4150 4415 l0 -755 170 0 170 0 0 457 c0 434 1 455 18 440 9 -9 179&#10;-214 377 -456 l360 -440 143 -1 142 0 0 755 0 755 -170 0 -170 0 -2 -457 -3&#10;-457 -374 457 -375 457 -143 0 -143 0 0 -755z" style="fill: rgb(29, 66, 105);"/>
    <path d="M5890 4415 l0 -755 175 0 175 0 0 755 0 755 -175 0 -175 0 0 -755z" style="fill: rgb(29, 66, 105);"/>
    <path d="M8430 4416 l0 -756 170 0 170 0 0 210 0 210 163 0 164 0 144 -210&#10;144 -209 188 -1 188 0 -54 78 c-30 42 -102 146 -161 230 -59 83 -109 158 -112&#10;165 -3 9 19 28 62 53 153 89 234 239 234 432 0 222 -97 385 -283 475 -140 68&#10;-157 70 -609 74 l-408 4 0 -755z m726 463 c161 -29 238 -132 221 -296 -11&#10;-106 -88 -189 -198 -212 -28 -6 -131 -11 -229 -11 l-180 0 0 258 c0 142 3 262&#10;7 265 11 11 314 8 379 -4z" style="fill: rgb(29, 66, 105);"/>
    <path d="M11237 4993 c-4 -3 -7 -42 -7 -85 l0 -78 123 0 c67 0 132 -3 145 -6&#10;22 -6 22 -5 22 86 l0 92 -32 -8 c-37 -9 -198 -8 -226 0 -10 4 -21 3 -25 -1z"/>
    <path d="M11220 4431 l0 -339 113 -7 c61 -4 130 -5 152 -3 l40 3 3 343 2 342&#10;-155 0 -155 0 0 -339z"/>
    <path d="M10875 4011 c-69 -32 -125 -111 -125 -176 l0 -25 630 0 631 0 -7 38&#10;c-10 58 -45 113 -92 147 l-44 30 -476 2 c-448 3 -479 2 -517 -16z"/>
    <path d="M10605 3743 c-11 -3 -26 -12 -32 -21 -16 -20 -17 -134 -1 -150 9 -9&#10;202 -12 805 -12 l793 0 16 25 c21 32 15 117 -11 145 -18 20 -31 20 -784 19&#10;-421 -1 -775 -3 -786 -6z"/>
    <path d="M4099 3269 c-148 -12 -272 -69 -374 -173 -82 -83 -118 -145 -145&#10;-252 -37 -143 -23 -278 42 -413 147 -306 557 -411 910 -232 l93 47 3 232 2&#10;232 -120 0 -120 0 0 -159 c0 -115 -3 -161 -12 -169 -31 -25 -132 -44 -212 -40&#10;-191 10 -322 137 -334 325 -7 114 19 192 91 270 127 138 374 146 515 18 l41&#10;-37 86 78 c47 43 85 81 85 85 0 17 -100 92 -165 124 -117 58 -230 77 -386 64z"/>
    <path d="M12289 3269 c-148 -12 -272 -69 -374 -173 -82 -83 -118 -145 -145&#10;-252 -70 -272 50 -544 293 -664 88 -44 200 -70 297 -70 134 0 306 47 413 114&#10;l47 29 0 228 0 229 -120 0 -120 0 0 -159 c0 -115 -3 -161 -12 -169 -31 -25&#10;-132 -44 -212 -40 -191 10 -322 137 -334 325 -7 114 19 192 91 270 127 138&#10;374 146 515 18 l41 -37 86 78 c47 43 85 81 85 85 0 17 -100 92 -165 124 -117&#10;58 -230 77 -386 64z"/>
    <path d="M1270 2695 l0 -565 435 0 435 0 0 105 0 105 -302 2 -303 3 0 125 0&#10;125 258 3 257 2 0 100 0 100 -257 2 -258 3 -3 118 -3 117 296 0 295 0 0 110 0&#10;110 -425 0 -425 0 0 -565z"/>
    <path d="M2340 2695 l0 -565 130 0 130 0 2 334 3 335 275 -335 274 -334 108 0&#10;108 0 0 565 0 565 -130 0 -130 0 -2 -334 -3 -335 -274 335 -274 334 -108 0&#10;-109 0 0 -565z"/>
    <path d="M4870 2695 l0 -566 133 3 132 3 1 550 c1 303 -1 556 -3 563 -4 9 -40&#10;12 -134 12 l-129 0 0 -565z"/>
    <path d="M5390 2695 l0 -565 130 0 130 0 2 334 3 335 275 -335 274 -334 108 0&#10;108 0 0 565 0 565 -130 0 -130 0 -2 -334 -3 -335 -274 335 -274 334 -108 0&#10;-109 0 0 -565z"/>
    <path d="M6680 2695 l0 -565 435 0 435 0 0 105 0 105 -302 2 -303 3 0 125 0&#10;125 258 3 257 2 0 100 0 100 -257 2 -258 3 -3 118 -3 117 296 0 295 0 0 110 0&#10;110 -425 0 -425 0 0 -565z"/>
    <path d="M7760 2695 l0 -565 435 0 435 0 0 105 0 105 -302 2 -303 3 0 125 0&#10;125 258 3 257 2 0 100 0 100 -257 2 -258 3 -3 118 -3 117 296 0 295 0 0 110 0&#10;110 -425 0 -425 0 0 -565z"/>
    <path d="M8830 2695 l0 -566 133 3 132 3 2 130 c1 72 2 140 2 153 1 21 4 22&#10;116 22 l114 0 106 -155 106 -155 145 0 145 0 -77 113 c-43 61 -100 142 -126&#10;179 l-47 67 42 24 c116 68 179 183 180 327 1 148 -51 256 -156 327 -113 76&#10;-216 93 -579 93 l-238 0 0 -565z m607 317 c22 -12 50 -33 61 -47 70 -89 42&#10;-234 -53 -279 -50 -24 -154 -37 -261 -34 l-87 3 1 190 c0 105 1 192 1 194 1 2&#10;67 1 149 -1 127 -3 153 -7 189 -26z"/>
    <path d="M10010 2695 l0 -566 133 3 132 3 0 560 0 560 -132 3 -133 3 0 -566z"/>
    <path d="M10530 2695 l0 -565 130 0 130 0 2 334 3 335 275 -335 274 -334 108&#10;0 108 0 0 565 0 565 -130 0 -130 0 -2 -334 -3 -335 -274 335 -274 334 -108 0&#10;-109 0 0 -565z"/>
    <path d="M1140 1770 l0 -80 5905 0 5905 0 0 80 0 80 -5905 0 -5905 0 0 -80z"/>
  </g>
</svg>