<?xml version="1.0" standalone="no"?>
<!DOCTYPE svg PUBLIC "-//W3C//DTD SVG 20010904//EN"
 "http://www.w3.org/TR/2001/REC-SVG-20010904/DTD/svg10.dtd">
<svg version="1.0" xmlns="http://www.w3.org/2000/svg"
 width="1024.000000pt" height="1024.000000pt" viewBox="0 0 1024.000000 1024.000000"
 preserveAspectRatio="xMidYMid meet">

<g transform="translate(0.000000,1024.000000) scale(0.100000,-0.100000)"
fill="#000000" stroke="none">
<path d="M4825 9085 c-318 -56 -641 -301 -793 -600 -40 -80 -90 -242 -101
-330 -9 -65 -11 -363 -9 -1060 4 -946 4 -972 24 -1040 67 -227 177 -402 346
-551 115 -101 310 -200 483 -245 76 -20 115 -23 250 -23 141 -1 173 3 265 26
197 50 337 122 473 241 178 157 309 368 369 593 l23 89 0 990 0 990 -33 114
c-56 194 -130 330 -252 463 -146 160 -357 283 -571 333 -101 24 -366 29 -474
10z m368 -237 c3 -13 9 -62 13 -109 l7 -87 37 -6 c20 -3 63 -19 94 -35 l58
-29 79 66 c43 36 79 69 79 74 0 17 17 7 33 -22 10 -17 57 -69 104 -116 47 -48
81 -89 77 -93 -5 -3 -27 -28 -48 -56 -21 -27 -50 -60 -64 -72 -21 -18 -23 -24
-13 -37 7 -8 23 -46 36 -83 l24 -68 108 -14 108 -14 2 -162 2 -162 -99 -7
c-115 -7 -130 -11 -130 -37 0 -10 -9 -42 -19 -70 l-20 -51 65 -80 65 -80 -82
-83 c-45 -46 -86 -90 -90 -98 -5 -8 -20 -22 -35 -32 l-26 -17 -74 73 c-68 68
-75 72 -91 57 -27 -24 -95 -56 -134 -63 l-36 -7 -11 -93 c-7 -51 -15 -100 -18
-109 -5 -13 -25 -16 -103 -18 -168 -4 -192 -3 -201 12 -5 8 -11 48 -15 90 -9
116 -9 116 -58 128 -23 6 -64 23 -90 37 l-49 25 -76 -70 -77 -70 -101 101
c-55 55 -108 113 -117 128 l-17 28 58 60 c31 33 62 62 69 64 8 3 3 27 -14 79
l-25 75 -87 18 c-48 9 -97 17 -109 17 -22 0 -22 2 -22 160 0 120 3 162 13 164
6 2 55 10 107 18 92 13 94 14 100 43 4 17 19 49 33 73 l27 42 -70 83 c-38 45
-70 85 -70 89 0 4 9 9 19 13 11 3 23 15 26 25 10 31 175 192 181 176 3 -7 36
-41 74 -75 l70 -62 42 24 c24 14 67 30 96 37 42 10 52 16 52 33 0 11 8 59 17
107 l16 87 148 2 c145 1 147 1 152 -21z m794 -1971 c39 -34 41 -52 10 -89
l-22 -28 -929 -1 c-904 -1 -930 0 -955 19 -35 26 -37 53 -6 90 l27 32 306 3
c169 2 584 3 922 3 l615 -1 32 -28z m-1 -293 c32 -41 27 -74 -16 -105 -24 -18
-64 -18 -943 -10 -911 7 -918 8 -939 28 -25 25 -27 69 -4 91 9 9 40 19 69 23
28 3 447 7 929 8 l877 1 27 -36z m-1 -279 c33 -32 33 -75 -1 -108 l-25 -25
-919 -1 -919 0 -31 25 c-38 33 -38 62 1 102 l31 32 920 0 919 0 24 -25z m-47
-291 c34 -24 55 -70 42 -94 -28 -52 13 -50 -955 -48 -855 3 -899 4 -922 21
-33 26 -29 63 11 103 l34 34 884 0 c784 0 886 -2 906 -16z m-199 -309 c36 -42
39 -65 10 -91 -20 -18 -49 -19 -697 -20 -730 -2 -711 -4 -731 49 -10 25 9 70
36 86 12 7 250 10 684 11 l667 0 31 -35z"/>
<path d="M4940 8449 c-94 -18 -219 -102 -276 -184 -85 -124 -107 -287 -59
-431 31 -93 60 -139 120 -192 142 -124 331 -153 498 -74 84 39 118 70 177 160
105 160 119 328 40 482 -30 60 -153 181 -211 207 -83 39 -193 51 -289 32z
m205 -178 c68 -32 113 -75 147 -141 19 -38 23 -60 23 -140 0 -80 -4 -102 -23
-140 -98 -189 -315 -228 -460 -83 -98 98 -128 287 -64 397 26 45 95 93 165
115 89 28 141 26 212 -8z"/>
<path d="M4959 8127 c-94 -63 -93 -219 3 -277 94 -57 218 20 218 136 0 126
-124 206 -221 141z"/>
<path d="M3407 7600 c-136 -34 -216 -136 -217 -275 0 -139 79 -246 213 -287
61 -18 76 -19 123 -9 185 42 297 259 215 418 -27 54 -109 126 -160 142 -59 17
-130 22 -174 11z m58 -126 c14 -15 27 -42 31 -61 6 -30 2 -39 -25 -67 -26 -25
-39 -31 -75 -31 -59 0 -86 25 -86 78 0 31 7 46 34 73 43 43 86 46 121 8z"/>
<path d="M6519 7594 c-60 -18 -143 -92 -175 -155 -34 -69 -34 -165 2 -237 71
-143 242 -211 370 -147 69 34 119 79 152 133 23 41 27 58 27 127 0 63 -5 89
-23 122 -35 67 -78 110 -144 143 -69 34 -131 38 -209 14z m70 -126 c40 -41 48
-71 26 -104 -18 -28 -70 -54 -109 -54 -28 0 -66 42 -66 72 0 44 60 118 96 118
12 0 36 -15 53 -32z"/>
<path d="M3600 6958 c-56 -21 -170 -23 -235 -3 -27 8 -51 12 -54 9 -10 -9 0
-644 10 -734 69 -581 370 -1058 862 -1364 101 -63 221 -114 377 -161 69 -21
131 -42 138 -48 14 -11 246 -21 427 -18 98 2 147 8 265 37 80 19 174 44 210
56 192 62 440 211 577 346 106 105 250 280 288 350 17 32 40 71 51 87 12 17
25 41 29 55 4 14 20 45 35 70 67 107 160 436 179 634 11 112 15 688 5 698 -3
3 -27 -3 -55 -13 -63 -24 -116 -24 -204 0 -38 11 -72 17 -75 14 -3 -2 -6 -152
-6 -331 -2 -405 -21 -544 -104 -770 -98 -269 -291 -519 -514 -666 -182 -120
-452 -226 -576 -225 -30 0 -158 1 -285 3 l-230 2 -94 32 c-224 77 -415 203
-575 380 -186 205 -308 445 -368 726 -19 90 -22 142 -27 476 l-6 376 -45 -18z
m1464 -2038 c58 -22 85 -126 48 -183 -46 -69 -102 -76 -157 -20 -46 47 -63
101 -45 143 25 61 88 86 154 60z"/>
<path d="M4704 4392 l1 -207 299 -2 c165 -1 314 -4 333 -8 l33 -6 0 204 c0
112 -3 206 -6 209 -3 3 -31 -3 -62 -14 -80 -28 -250 -34 -432 -14 -101 10
-148 20 -155 30 -8 10 -11 -43 -11 -192z"/>
<path d="M4788 4053 l-118 -4 0 -779 0 -780 355 -2 355 -3 0 621 c0 341 3 696
7 787 l6 167 -244 -2 c-134 -1 -297 -4 -361 -5z"/>
<path d="M3971 2355 c-133 -37 -254 -133 -310 -243 -36 -71 -61 -159 -61 -214
l0 -38 1394 0 c766 0 1415 -3 1441 -7 l48 -6 -7 73 c-7 80 -43 182 -87 246
-73 108 -223 192 -347 196 -31 1 -470 0 -974 -1 -505 -1 -946 1 -980 4 -41 3
-82 0 -117 -10z"/>
<path d="M3245 1711 c-28 -12 -51 -40 -70 -84 -23 -55 -20 -219 4 -274 37 -80
-145 -73 1864 -71 l1797 3 30 30 c74 75 61 311 -22 380 l-30 25 -1776 -1
c-977 0 -1786 -4 -1797 -8z"/>
</g>
</svg>
